<?xml version="1.0" encoding="utf-8"?>
<!-- Generate more at customizr.net -->
<!DOCTYPE svg PUBLIC "-//W3C//DTD SVG 1.1//EN" "http://www.w3.org/Graphics/SVG/1.1/DTD/svg11.dtd">
<svg id="round-up" class="custom-icon" version="1.1" xmlns="http://www.w3.org/2000/svg" xmlns:xlink="http://www.w3.org/1999/xlink" viewBox="0 0 100 100">
    <style type="text/css">
        .custom-icon{
            cursor: pointer;
            height: 100px; 
            width: 100px;
        }
        .outer-shape {
            opacity: 1; 
            fill: rgb(55, 53, 57);
        }
        .custom-icon:hover > .outer-shape {
            fill: rgb(70, 68, 72);
        }
        .inner-shape {
            opacity: 1; 
            fill: rgb(96, 131, 211);
        }
    </style>
    <rect class="outer-shape" x="0" y="0" width="100" height="100"></rect>
    
	<path class="inner-shape" transform="translate(18,18) scale(0.64)" d="M95.249,39.699L62.25,6.534C59.413,2.176,55.332,0,50,0c-5.336,0-9.418,2.175-12.25,6.533l-33,33.165 C1.582,42.714,0,46.145,0,50c0,4.019,1.539,7.537,4.625,10.553c3.082,3.015,6.539,4.522,10.375,4.522 c3.832,0,7.249-1.508,10.25-4.522L35.5,50.252v35.175c0,4.522,1.5,8.205,4.5,11.055C42.664,98.826,46,100,50,100 s7.332-1.174,10-3.518c2.999-2.85,4.5-6.533,4.5-11.055V50.252l10.25,10.301c2.999,3.015,6.414,4.522,10.25,4.522 c3.832,0,7.288-1.508,10.375-4.522C98.457,57.537,100,54.019,100,50C99.998,46.145,98.412,42.714,95.249,39.699z"></path>
</svg>

