<?xml version="1.0" encoding="utf-8"?>
<!-- Generate more at customizr.net -->
<!DOCTYPE svg PUBLIC "-//W3C//DTD SVG 1.1//EN" "http://www.w3.org/Graphics/SVG/1.1/DTD/svg11.dtd">
<svg id="round-left" class="custom-icon" version="1.1" xmlns="http://www.w3.org/2000/svg" xmlns:xlink="http://www.w3.org/1999/xlink" viewBox="0 0 100 100" style="height: 100px; width: 100px;">
    <rect class="outer-shape" x="0" y="0" width="100" height="100" rx="1" ry="1" style="opacity: 1; fill: rgb(55, 53, 57);"></rect>
	<path class="inner-shape" style="opacity: 1; fill: rgb(96, 131, 211);" transform="translate(18,18) scale(0.64)" d="M96.482,40.001c-2.85-3-6.533-4.5-11.055-4.5H50.251l10.302-10.25c3.015-3,4.522-6.414,4.522-10.25 c0-3.833-1.508-7.289-4.522-10.375C57.538,1.543,54.019,0.001,50,0.001c-3.855,0-7.286,1.586-10.302,4.75L6.533,37.75 C2.175,40.586,0,44.668,0,50c0,5.335,2.175,9.418,6.533,12.25l33.165,33c3.015,3.168,6.446,4.75,10.302,4.75 c4.02,0,7.538-1.54,10.553-4.625c3.015-3.082,4.522-6.539,4.522-10.375c0-3.833-1.508-7.25-4.522-10.25L50.251,64.5h35.176 c4.522,0,8.205-1.5,11.055-4.5c2.343-2.664,3.518-6,3.518-9.999S98.826,42.668,96.482,40.001z"></path>
</svg>

